<?xml version="1.0" encoding="UTF-8" standalone="no"?>
<!DOCTYPE svg PUBLIC "-//W3C//DTD SVG 1.1//EN"
 "http://www.w3.org/Graphics/SVG/1.1/DTD/svg11.dtd">
<!-- Generated by graphviz version 2.34.0 (20140130.1339)
 -->
<!-- Title: controllers_diagram Pages: 1 -->
<svg width="539pt" height="294pt"
 viewBox="0.00 0.00 539.42 294.00" xmlns="http://www.w3.org/2000/svg" xmlns:xlink="http://www.w3.org/1999/xlink">
<g id="graph0" class="graph" transform="scale(1 1) rotate(0) translate(4 290)">
<title>controllers_diagram</title>
<polygon fill="white" stroke="white" points="-4,4 -4,-290 535.423,-290 535.423,4 -4,4"/>
<!-- _diagram_info -->
<g id="node1" class="node"><title>_diagram_info</title>
<text text-anchor="start" x="333" y="-269" font-family="Times,serif" font-size="13.00">Controllers diagram</text>
<text text-anchor="start" x="333" y="-253.4" font-family="Times,serif" font-size="13.00">Date: Mar 20 2014 &#45; 13:41</text>
<text text-anchor="start" x="333" y="-237.8" font-family="Times,serif" font-size="13.00">Migration version: 20140316111014</text>
<text text-anchor="start" x="333" y="-222.2" font-family="Times,serif" font-size="13.00">Generated by RailRoady 1.1.1</text>
<text text-anchor="start" x="333" y="-206.6" font-family="Times,serif" font-size="13.00">http://railroady.prestonlee.com</text>
</g>
<!-- ApplicationController -->
<g id="node2" class="node"><title>ApplicationController</title>
<ellipse fill="none" stroke="black" cx="202.285" cy="-75.9257" rx="96.1448" ry="18"/>
<text text-anchor="middle" x="202.285" y="-70.3257" font-family="Times,serif" font-size="14.00">ApplicationController</text>
</g>
<!-- CategoriesController -->
<g id="node3" class="node"><title>CategoriesController</title>
<ellipse fill="none" stroke="black" cx="296.495" cy="-22.1528" rx="92.0532" ry="18"/>
<text text-anchor="middle" x="296.495" y="-16.5528" font-family="Times,serif" font-size="14.00">CategoriesController</text>
</g>
<!-- ApplicationController&#45;&gt;CategoriesController -->
<g id="edge1" class="edge"><title>ApplicationController&#45;&gt;CategoriesController</title>
<path fill="none" stroke="black" d="M232.353,-58.7637C241.786,-53.3796 252.272,-47.3941 261.987,-41.8491"/>
<polyline fill="none" stroke="black" points="266.39,-39.3361 262.047,-41.8147 "/>
</g>
<!-- HomeController -->
<g id="node4" class="node"><title>HomeController</title>
<ellipse fill="none" stroke="black" cx="111.985" cy="-18" rx="74.1605" ry="18"/>
<text text-anchor="middle" x="111.985" y="-12.4" font-family="Times,serif" font-size="14.00">HomeController</text>
</g>
<!-- ApplicationController&#45;&gt;HomeController -->
<g id="edge2" class="edge"><title>ApplicationController&#45;&gt;HomeController</title>
<path fill="none" stroke="black" d="M175.192,-58.5461C165.01,-52.0144 153.36,-44.5417 142.86,-37.8056"/>
<polyline fill="none" stroke="black" points="138.437,-34.9687 142.646,-37.6684 "/>
</g>
<!-- ImagesController -->
<g id="node5" class="node"><title>ImagesController</title>
<ellipse fill="none" stroke="black" cx="78.6163" cy="-122.181" rx="78.7327" ry="18"/>
<text text-anchor="middle" x="78.6163" y="-116.581" font-family="Times,serif" font-size="14.00">ImagesController</text>
</g>
<!-- ApplicationController&#45;&gt;ImagesController -->
<g id="edge3" class="edge"><title>ApplicationController&#45;&gt;ImagesController</title>
<path fill="none" stroke="black" d="M159.032,-92.1035C147.939,-96.2523 135.968,-100.73 124.737,-104.931"/>
<polyline fill="none" stroke="black" points="119.973,-106.712 124.657,-104.961 "/>
</g>
<!-- OffersController -->
<g id="node6" class="node"><title>OffersController</title>
<ellipse fill="none" stroke="black" cx="317.912" cy="-129.925" rx="75.4526" ry="18"/>
<text text-anchor="middle" x="317.912" y="-124.325" font-family="Times,serif" font-size="14.00">OffersController</text>
</g>
<!-- ApplicationController&#45;&gt;OffersController -->
<g id="edge4" class="edge"><title>ApplicationController&#45;&gt;OffersController</title>
<path fill="none" stroke="black" d="M238.236,-92.7155C251.108,-98.7266 265.675,-105.53 278.8,-111.659"/>
<polyline fill="none" stroke="black" points="283.565,-113.885 279.035,-111.769 "/>
</g>
<!-- ProductsController -->
<g id="node7" class="node"><title>ProductsController</title>
<ellipse fill="none" stroke="black" cx="196.08" cy="-162.083" rx="84.5585" ry="18"/>
<text text-anchor="middle" x="196.08" y="-156.483" font-family="Times,serif" font-size="14.00">ProductsController</text>
</g>
<!-- ApplicationController&#45;&gt;ProductsController -->
<g id="edge5" class="edge"><title>ApplicationController&#45;&gt;ProductsController</title>
<path fill="none" stroke="black" d="M200.969,-94.1974C200.031,-107.219 198.763,-124.829 197.753,-138.849"/>
<polyline fill="none" stroke="black" points="197.394,-143.837 197.753,-138.85 "/>
</g>
</g>
</svg>
