<?xml version="1.0" encoding="UTF-8" standalone="no"?>
<!DOCTYPE svg PUBLIC "-//W3C//DTD SVG 1.1//EN"
 "http://www.w3.org/Graphics/SVG/1.1/DTD/svg11.dtd">
<!-- Generated by graphviz version 2.34.0 (20140130.1339)
 -->
<!-- Title: controllers_diagram Pages: 1 -->
<svg width="709pt" height="676pt"
 viewBox="0.00 0.00 709.42 675.75" xmlns="http://www.w3.org/2000/svg" xmlns:xlink="http://www.w3.org/1999/xlink">
<g id="graph0" class="graph" transform="scale(1 1) rotate(0) translate(4 671.752)">
<title>controllers_diagram</title>
<polygon fill="white" stroke="white" points="-4,4 -4,-671.752 705.423,-671.752 705.423,4 -4,4"/>
<!-- _diagram_info -->
<g id="node1" class="node"><title>_diagram_info</title>
<text text-anchor="start" x="503" y="-159" font-family="Times,serif" font-size="13.00">Controllers diagram</text>
<text text-anchor="start" x="503" y="-143.4" font-family="Times,serif" font-size="13.00">Date: Mar 20 2014 &#45; 13:41</text>
<text text-anchor="start" x="503" y="-127.8" font-family="Times,serif" font-size="13.00">Migration version: 20140316111014</text>
<text text-anchor="start" x="503" y="-112.2" font-family="Times,serif" font-size="13.00">Generated by RailRoady 1.1.1</text>
<text text-anchor="start" x="503" y="-96.6" font-family="Times,serif" font-size="13.00">http://railroady.prestonlee.com</text>
</g>
<!-- ApplicationController -->
<g id="node2" class="node"><title>ApplicationController</title>
<path fill="none" stroke="black" d="M253.436,-263.635C253.436,-263.635 432.071,-263.635 432.071,-263.635 438.071,-263.635 444.071,-269.635 444.071,-275.635 444.071,-275.635 444.071,-366.835 444.071,-366.835 444.071,-372.835 438.071,-378.835 432.071,-378.835 432.071,-378.835 253.436,-378.835 253.436,-378.835 247.436,-378.835 241.436,-372.835 241.436,-366.835 241.436,-366.835 241.436,-275.635 241.436,-275.635 241.436,-269.635 247.436,-263.635 253.436,-263.635"/>
<text text-anchor="middle" x="342.754" y="-360.835" font-family="Times,serif" font-size="14.00">ApplicationController</text>
<polyline fill="none" stroke="black" points="241.436,-354.035 444.071,-354.035 "/>
<text text-anchor="start" x="249.436" y="-336.035" font-family="Times,serif" font-size="14.00">_one_time_conditions_valid_64?</text>
<text text-anchor="start" x="249.436" y="-319.235" font-family="Times,serif" font-size="14.00">search</text>
<polyline fill="none" stroke="black" points="241.436,-312.435 444.071,-312.435 "/>
<polyline fill="none" stroke="black" points="241.436,-288.435 444.071,-288.435 "/>
<text text-anchor="start" x="249.436" y="-270.435" font-family="Times,serif" font-size="14.00">_layout</text>
</g>
<!-- CategoriesController -->
<g id="node3" class="node"><title>CategoriesController</title>
<path fill="none" stroke="black" d="M311.304,-0.5C311.304,-0.5 420.718,-0.5 420.718,-0.5 426.718,-0.5 432.718,-6.5 432.718,-12.5 432.718,-12.5 432.718,-187.7 432.718,-187.7 432.718,-193.7 426.718,-199.7 420.718,-199.7 420.718,-199.7 311.304,-199.7 311.304,-199.7 305.304,-199.7 299.304,-193.7 299.304,-187.7 299.304,-187.7 299.304,-12.5 299.304,-12.5 299.304,-6.5 305.304,-0.5 311.304,-0.5"/>
<text text-anchor="middle" x="366.011" y="-181.7" font-family="Times,serif" font-size="14.00">CategoriesController</text>
<polyline fill="none" stroke="black" points="299.304,-174.9 432.718,-174.9 "/>
<text text-anchor="start" x="307.304" y="-156.9" font-family="Times,serif" font-size="14.00">create</text>
<text text-anchor="start" x="307.304" y="-140.1" font-family="Times,serif" font-size="14.00">destroy</text>
<text text-anchor="start" x="307.304" y="-123.3" font-family="Times,serif" font-size="14.00">edit</text>
<text text-anchor="start" x="307.304" y="-106.5" font-family="Times,serif" font-size="14.00">index</text>
<text text-anchor="start" x="307.304" y="-89.7" font-family="Times,serif" font-size="14.00">new</text>
<text text-anchor="start" x="307.304" y="-72.9" font-family="Times,serif" font-size="14.00">show</text>
<text text-anchor="start" x="307.304" y="-56.1" font-family="Times,serif" font-size="14.00">update</text>
<polyline fill="none" stroke="black" points="299.304,-49.3 432.718,-49.3 "/>
<polyline fill="none" stroke="black" points="299.304,-25.3 432.718,-25.3 "/>
<text text-anchor="start" x="307.304" y="-7.3" font-family="Times,serif" font-size="14.00">_layout</text>
</g>
<!-- ApplicationController&#45;&gt;CategoriesController -->
<g id="edge1" class="edge"><title>ApplicationController&#45;&gt;CategoriesController</title>
<path fill="none" stroke="black" d="M348.834,-263.423C350.72,-245.491 352.86,-225.142 354.974,-205.04"/>
<polyline fill="none" stroke="black" points="355.511,-199.937 354.988,-204.91 "/>
</g>
<!-- HomeController -->
<g id="node4" class="node"><title>HomeController</title>
<path fill="none" stroke="black" d="M57.0659,-36.8616C57.0659,-36.8616 140.825,-36.8616 140.825,-36.8616 146.825,-36.8616 152.825,-42.8616 152.825,-48.8616 152.825,-48.8616 152.825,-156.862 152.825,-156.862 152.825,-162.862 146.825,-168.862 140.825,-168.862 140.825,-168.862 57.0659,-168.862 57.0659,-168.862 51.0659,-168.862 45.0659,-162.862 45.0659,-156.862 45.0659,-156.862 45.0659,-48.8616 45.0659,-48.8616 45.0659,-42.8616 51.0659,-36.8616 57.0659,-36.8616"/>
<text text-anchor="middle" x="98.9453" y="-150.862" font-family="Times,serif" font-size="14.00">HomeController</text>
<polyline fill="none" stroke="black" points="45.0659,-144.062 152.825,-144.062 "/>
<text text-anchor="start" x="53.0659" y="-126.062" font-family="Times,serif" font-size="14.00">cat_show</text>
<text text-anchor="start" x="53.0659" y="-109.262" font-family="Times,serif" font-size="14.00">index</text>
<text text-anchor="start" x="53.0659" y="-92.4616" font-family="Times,serif" font-size="14.00">search</text>
<polyline fill="none" stroke="black" points="45.0659,-85.6616 152.825,-85.6616 "/>
<polyline fill="none" stroke="black" points="45.0659,-61.6616 152.825,-61.6616 "/>
<text text-anchor="start" x="53.0659" y="-43.6616" font-family="Times,serif" font-size="14.00">_layout</text>
</g>
<!-- ApplicationController&#45;&gt;HomeController -->
<g id="edge2" class="edge"><title>ApplicationController&#45;&gt;HomeController</title>
<path fill="none" stroke="black" d="M278.377,-263.574C240.671,-229.802 193.439,-187.497 156.899,-154.769"/>
<polyline fill="none" stroke="black" points="152.948,-151.231 156.673,-154.567 "/>
</g>
<!-- ImagesController -->
<g id="node5" class="node"><title>ImagesController</title>
<path fill="none" stroke="black" d="M35.7824,-237.231C35.7824,-237.231 125.755,-237.231 125.755,-237.231 131.755,-237.231 137.755,-243.231 137.755,-249.231 137.755,-249.231 137.755,-424.431 137.755,-424.431 137.755,-430.431 131.755,-436.431 125.755,-436.431 125.755,-436.431 35.7824,-436.431 35.7824,-436.431 29.7824,-436.431 23.7824,-430.431 23.7824,-424.431 23.7824,-424.431 23.7824,-249.231 23.7824,-249.231 23.7824,-243.231 29.7824,-237.231 35.7824,-237.231"/>
<text text-anchor="middle" x="80.7687" y="-418.431" font-family="Times,serif" font-size="14.00">ImagesController</text>
<polyline fill="none" stroke="black" points="23.7824,-411.631 137.755,-411.631 "/>
<text text-anchor="start" x="31.7824" y="-393.631" font-family="Times,serif" font-size="14.00">create</text>
<text text-anchor="start" x="31.7824" y="-376.831" font-family="Times,serif" font-size="14.00">destroy</text>
<text text-anchor="start" x="31.7824" y="-360.031" font-family="Times,serif" font-size="14.00">edit</text>
<text text-anchor="start" x="31.7824" y="-343.231" font-family="Times,serif" font-size="14.00">index</text>
<text text-anchor="start" x="31.7824" y="-326.431" font-family="Times,serif" font-size="14.00">new</text>
<text text-anchor="start" x="31.7824" y="-309.631" font-family="Times,serif" font-size="14.00">show</text>
<text text-anchor="start" x="31.7824" y="-292.831" font-family="Times,serif" font-size="14.00">update</text>
<polyline fill="none" stroke="black" points="23.7824,-286.031 137.755,-286.031 "/>
<polyline fill="none" stroke="black" points="23.7824,-262.031 137.755,-262.031 "/>
<text text-anchor="start" x="31.7824" y="-244.031" font-family="Times,serif" font-size="14.00">_layout</text>
</g>
<!-- ApplicationController&#45;&gt;ImagesController -->
<g id="edge3" class="edge"><title>ApplicationController&#45;&gt;ImagesController</title>
<path fill="none" stroke="black" d="M241.088,-327.287C208.049,-329.254 172.385,-331.377 143.102,-333.12"/>
<polyline fill="none" stroke="black" points="138.086,-333.419 143.077,-333.122 "/>
</g>
<!-- OffersController -->
<g id="node6" class="node"><title>OffersController</title>
<path fill="none" stroke="black" d="M327.471,-454.778C327.471,-454.778 412.528,-454.778 412.528,-454.778 418.528,-454.778 424.528,-460.778 424.528,-466.778 424.528,-466.778 424.528,-625.178 424.528,-625.178 424.528,-631.178 418.528,-637.178 412.528,-637.178 412.528,-637.178 327.471,-637.178 327.471,-637.178 321.471,-637.178 315.471,-631.178 315.471,-625.178 315.471,-625.178 315.471,-466.778 315.471,-466.778 315.471,-460.778 321.471,-454.778 327.471,-454.778"/>
<text text-anchor="middle" x="370" y="-619.178" font-family="Times,serif" font-size="14.00">OffersController</text>
<polyline fill="none" stroke="black" points="315.471,-612.378 424.528,-612.378 "/>
<text text-anchor="start" x="323.471" y="-594.378" font-family="Times,serif" font-size="14.00">accept</text>
<text text-anchor="start" x="323.471" y="-577.578" font-family="Times,serif" font-size="14.00">add</text>
<text text-anchor="start" x="323.471" y="-560.778" font-family="Times,serif" font-size="14.00">add_first_item</text>
<text text-anchor="start" x="323.471" y="-543.978" font-family="Times,serif" font-size="14.00">destroy</text>
<text text-anchor="start" x="323.471" y="-527.178" font-family="Times,serif" font-size="14.00">finalize_offer</text>
<text text-anchor="start" x="323.471" y="-510.378" font-family="Times,serif" font-size="14.00">index</text>
<polyline fill="none" stroke="black" points="315.471,-503.578 424.528,-503.578 "/>
<polyline fill="none" stroke="black" points="315.471,-479.578 424.528,-479.578 "/>
<text text-anchor="start" x="323.471" y="-461.578" font-family="Times,serif" font-size="14.00">_layout</text>
</g>
<!-- ApplicationController&#45;&gt;OffersController -->
<g id="edge4" class="edge"><title>ApplicationController&#45;&gt;OffersController</title>
<path fill="none" stroke="black" d="M349.77,-379.112C352.376,-400.603 355.406,-425.604 358.317,-449.61"/>
<polyline fill="none" stroke="black" points="358.936,-454.715 358.334,-449.752 "/>
</g>
<!-- ProductsController -->
<g id="node7" class="node"><title>ProductsController</title>
<path fill="none" stroke="black" d="M12,-451.252C12,-451.252 197.635,-451.252 197.635,-451.252 203.635,-451.252 209.635,-457.252 209.635,-463.252 209.635,-463.252 209.635,-655.252 209.635,-655.252 209.635,-661.252 203.635,-667.252 197.635,-667.252 197.635,-667.252 12,-667.252 12,-667.252 6,-667.252 0,-661.252 0,-655.252 0,-655.252 0,-463.252 0,-463.252 0,-457.252 6,-451.252 12,-451.252"/>
<text text-anchor="middle" x="104.817" y="-649.252" font-family="Times,serif" font-size="14.00">ProductsController</text>
<polyline fill="none" stroke="black" points="0,-642.452 209.635,-642.452 "/>
<text text-anchor="start" x="8" y="-624.452" font-family="Times,serif" font-size="14.00">_one_time_conditions_valid_154?</text>
<text text-anchor="start" x="8" y="-607.652" font-family="Times,serif" font-size="14.00">create</text>
<text text-anchor="start" x="8" y="-590.852" font-family="Times,serif" font-size="14.00">destroy</text>
<text text-anchor="start" x="8" y="-574.052" font-family="Times,serif" font-size="14.00">edit</text>
<text text-anchor="start" x="8" y="-557.252" font-family="Times,serif" font-size="14.00">index</text>
<text text-anchor="start" x="8" y="-540.452" font-family="Times,serif" font-size="14.00">new</text>
<text text-anchor="start" x="8" y="-523.652" font-family="Times,serif" font-size="14.00">show</text>
<text text-anchor="start" x="8" y="-506.852" font-family="Times,serif" font-size="14.00">update</text>
<polyline fill="none" stroke="black" points="0,-500.052 209.635,-500.052 "/>
<polyline fill="none" stroke="black" points="0,-476.052 209.635,-476.052 "/>
<text text-anchor="start" x="8" y="-458.052" font-family="Times,serif" font-size="14.00">_layout</text>
</g>
<!-- ApplicationController&#45;&gt;ProductsController -->
<g id="edge5" class="edge"><title>ApplicationController&#45;&gt;ProductsController</title>
<path fill="none" stroke="black" d="M285.156,-378.852C263.526,-400.489 238.17,-425.854 213.417,-450.616"/>
<polyline fill="none" stroke="black" points="209.769,-454.264 213.304,-450.728 "/>
</g>
</g>
</svg>
