<?xml version="1.0" encoding="UTF-8" standalone="no"?>
<!DOCTYPE svg PUBLIC "-//W3C//DTD SVG 1.1//EN"
 "http://www.w3.org/Graphics/SVG/1.1/DTD/svg11.dtd">
<!-- Generated by graphviz version 2.34.0 (20140130.1339)
 -->
<!-- Title: models_diagram Pages: 1 -->
<svg width="555pt" height="862pt"
 viewBox="0.00 0.00 555.00 862.00" xmlns="http://www.w3.org/2000/svg" xmlns:xlink="http://www.w3.org/1999/xlink">
<g id="graph0" class="graph" transform="scale(1 1) rotate(0) translate(4 858)">
<title>models_diagram</title>
<polygon fill="white" stroke="white" points="-4,4 -4,-858 551,-858 551,4 -4,4"/>
<!-- _diagram_info -->
<g id="node1" class="node"><title>_diagram_info</title>
<text text-anchor="start" x="7.78833" y="-837" font-family="Times,serif" font-size="13.00">Models diagram</text>
<text text-anchor="start" x="7.78833" y="-821.4" font-family="Times,serif" font-size="13.00">Date: Mar 20 2014 &#45; 13:41</text>
<text text-anchor="start" x="7.78833" y="-805.8" font-family="Times,serif" font-size="13.00">Migration version: 20140316111014</text>
<text text-anchor="start" x="7.78833" y="-790.2" font-family="Times,serif" font-size="13.00">Generated by RailRoady 1.1.1</text>
<text text-anchor="start" x="7.78833" y="-774.6" font-family="Times,serif" font-size="13.00">http://railroady.prestonlee.com</text>
</g>
<!-- Category -->
<g id="node2" class="node"><title>Category</title>
<path fill="none" stroke="black" d="M426.495,-402C426.495,-402 535.505,-402 535.505,-402 541.505,-402 547.505,-408 547.505,-414 547.505,-414 547.505,-490 547.505,-490 547.505,-496 541.505,-502 535.505,-502 535.505,-502 426.495,-502 426.495,-502 420.495,-502 414.495,-496 414.495,-490 414.495,-490 414.495,-414 414.495,-414 414.495,-408 420.495,-402 426.495,-402"/>
<text text-anchor="middle" x="481" y="-484" font-family="Times,serif" font-size="14.00">Category</text>
<polyline fill="none" stroke="black" points="414.495,-477.2 547.505,-477.2 "/>
<text text-anchor="start" x="422.495" y="-459.2" font-family="Times,serif" font-size="14.00">id :integer</text>
<text text-anchor="start" x="422.495" y="-442.4" font-family="Times,serif" font-size="14.00">name :string</text>
<text text-anchor="start" x="422.495" y="-425.6" font-family="Times,serif" font-size="14.00">created_at :datetime</text>
<text text-anchor="start" x="422.495" y="-408.8" font-family="Times,serif" font-size="14.00">updated_at :datetime</text>
</g>
<!-- Product -->
<g id="node5" class="node"><title>Product</title>
<path fill="none" stroke="black" d="M201.495,-155.2C201.495,-155.2 310.505,-155.2 310.505,-155.2 316.505,-155.2 322.505,-161.2 322.505,-167.2 322.505,-167.2 322.505,-276.8 322.505,-276.8 322.505,-282.8 316.505,-288.8 310.505,-288.8 310.505,-288.8 201.495,-288.8 201.495,-288.8 195.495,-288.8 189.495,-282.8 189.495,-276.8 189.495,-276.8 189.495,-167.2 189.495,-167.2 189.495,-161.2 195.495,-155.2 201.495,-155.2"/>
<text text-anchor="middle" x="256" y="-270.8" font-family="Times,serif" font-size="14.00">Product</text>
<polyline fill="none" stroke="black" points="189.495,-264 322.505,-264 "/>
<text text-anchor="start" x="197.495" y="-246" font-family="Times,serif" font-size="14.00">id :integer</text>
<text text-anchor="start" x="197.495" y="-229.2" font-family="Times,serif" font-size="14.00">name :string</text>
<text text-anchor="start" x="197.495" y="-212.4" font-family="Times,serif" font-size="14.00">user_id :integer</text>
<text text-anchor="start" x="197.495" y="-195.6" font-family="Times,serif" font-size="14.00">description :string</text>
<text text-anchor="start" x="197.495" y="-178.8" font-family="Times,serif" font-size="14.00">created_at :datetime</text>
<text text-anchor="start" x="197.495" y="-162" font-family="Times,serif" font-size="14.00">updated_at :datetime</text>
</g>
<!-- Category&#45;&gt;Product -->
<g id="edge1" class="edge"><title>Category&#45;&gt;Product</title>
<path fill="none" stroke="#0fc979" d="M449.806,-393.201C436.196,-370.838 419,-345.893 400,-326 379.775,-304.824 354.661,-285.145 331.098,-268.781"/>
<polygon fill="#0fc979" stroke="#0fc979" points="449.905,-393.367 451.169,-404.26 452.469,-397.659 455.033,-401.952 455.033,-401.952 455.033,-401.952 452.469,-397.659 458.896,-399.645 449.905,-393.367 449.905,-393.367"/>
<polygon fill="#0fc979" stroke="#0fc979" points="331.093,-268.778 325.378,-259.419 326.966,-265.956 322.838,-263.134 322.838,-263.134 322.838,-263.134 326.966,-265.956 320.298,-266.849 331.093,-268.778 331.093,-268.778"/>
</g>
<!-- Image -->
<g id="node3" class="node"><title>Image</title>
<path fill="none" stroke="black" d="M114.374,-0.6C114.374,-0.6 229.626,-0.6 229.626,-0.6 235.626,-0.6 241.626,-6.6 241.626,-12.6 241.626,-12.6 241.626,-105.4 241.626,-105.4 241.626,-111.4 235.626,-117.4 229.626,-117.4 229.626,-117.4 114.374,-117.4 114.374,-117.4 108.374,-117.4 102.374,-111.4 102.374,-105.4 102.374,-105.4 102.374,-12.6 102.374,-12.6 102.374,-6.6 108.374,-0.6 114.374,-0.6"/>
<text text-anchor="middle" x="172" y="-99.4" font-family="Times,serif" font-size="14.00">Image</text>
<polyline fill="none" stroke="black" points="102.374,-92.6 241.626,-92.6 "/>
<text text-anchor="start" x="110.374" y="-74.6" font-family="Times,serif" font-size="14.00">id :integer</text>
<text text-anchor="start" x="110.374" y="-57.8" font-family="Times,serif" font-size="14.00">product_id :integer</text>
<text text-anchor="start" x="110.374" y="-41" font-family="Times,serif" font-size="14.00">created_at :datetime</text>
<text text-anchor="start" x="110.374" y="-24.2" font-family="Times,serif" font-size="14.00">updated_at :datetime</text>
<text text-anchor="start" x="110.374" y="-7.4" font-family="Times,serif" font-size="14.00">product_image :string</text>
</g>
<!-- Offer -->
<g id="node4" class="node"><title>Offer</title>
<path fill="none" stroke="black" d="M163.495,-614.6C163.495,-614.6 272.505,-614.6 272.505,-614.6 278.505,-614.6 284.505,-620.6 284.505,-626.6 284.505,-626.6 284.505,-719.4 284.505,-719.4 284.505,-725.4 278.505,-731.4 272.505,-731.4 272.505,-731.4 163.495,-731.4 163.495,-731.4 157.495,-731.4 151.495,-725.4 151.495,-719.4 151.495,-719.4 151.495,-626.6 151.495,-626.6 151.495,-620.6 157.495,-614.6 163.495,-614.6"/>
<text text-anchor="middle" x="218" y="-713.4" font-family="Times,serif" font-size="14.00">Offer</text>
<polyline fill="none" stroke="black" points="151.495,-706.6 284.505,-706.6 "/>
<text text-anchor="start" x="159.495" y="-688.6" font-family="Times,serif" font-size="14.00">id :integer</text>
<text text-anchor="start" x="159.495" y="-671.8" font-family="Times,serif" font-size="14.00">created_at :datetime</text>
<text text-anchor="start" x="159.495" y="-655" font-family="Times,serif" font-size="14.00">updated_at :datetime</text>
<text text-anchor="start" x="159.495" y="-638.2" font-family="Times,serif" font-size="14.00">completed :string</text>
<text text-anchor="start" x="159.495" y="-621.4" font-family="Times,serif" font-size="14.00">initiated_by :string</text>
</g>
<!-- Offer&#45;&gt;Product -->
<g id="edge4" class="edge"><title>Offer&#45;&gt;Product</title>
<path fill="none" stroke="#e4f87d" d="M158.651,-606.145C153.105,-597.176 148.325,-587.702 145,-578 108.691,-472.049 100.214,-428.656 145,-326 153.266,-307.053 166.927,-290.027 181.888,-275.531"/>
<polygon fill="#e4f87d" stroke="#e4f87d" points="158.698,-606.217 160.416,-617.048 161.439,-610.399 164.18,-614.581 164.18,-614.581 164.18,-614.581 161.439,-610.399 167.944,-612.114 158.698,-606.217 158.698,-606.217"/>
<polygon fill="#e4f87d" stroke="#e4f87d" points="181.996,-275.43 192.384,-271.915 185.658,-272.025 189.319,-268.62 189.319,-268.62 189.319,-268.62 185.658,-272.025 186.255,-265.325 181.996,-275.43 181.996,-275.43"/>
</g>
<!-- User -->
<g id="node6" class="node"><title>User</title>
<path fill="none" stroke="black" d="M165.722,-326.4C165.722,-326.4 346.278,-326.4 346.278,-326.4 352.278,-326.4 358.278,-332.4 358.278,-338.4 358.278,-338.4 358.278,-565.6 358.278,-565.6 358.278,-571.6 352.278,-577.6 346.278,-577.6 346.278,-577.6 165.722,-577.6 165.722,-577.6 159.722,-577.6 153.722,-571.6 153.722,-565.6 153.722,-565.6 153.722,-338.4 153.722,-338.4 153.722,-332.4 159.722,-326.4 165.722,-326.4"/>
<text text-anchor="middle" x="256" y="-559.6" font-family="Times,serif" font-size="14.00">User</text>
<polyline fill="none" stroke="black" points="153.722,-552.8 358.278,-552.8 "/>
<text text-anchor="start" x="161.722" y="-534.8" font-family="Times,serif" font-size="14.00">id :integer</text>
<text text-anchor="start" x="161.722" y="-518" font-family="Times,serif" font-size="14.00">email :string</text>
<text text-anchor="start" x="161.722" y="-501.2" font-family="Times,serif" font-size="14.00">encrypted_password :string</text>
<text text-anchor="start" x="161.722" y="-484.4" font-family="Times,serif" font-size="14.00">reset_password_token :string</text>
<text text-anchor="start" x="161.722" y="-467.6" font-family="Times,serif" font-size="14.00">reset_password_sent_at :datetime</text>
<text text-anchor="start" x="161.722" y="-450.8" font-family="Times,serif" font-size="14.00">remember_created_at :datetime</text>
<text text-anchor="start" x="161.722" y="-434" font-family="Times,serif" font-size="14.00">sign_in_count :integer</text>
<text text-anchor="start" x="161.722" y="-417.2" font-family="Times,serif" font-size="14.00">current_sign_in_at :datetime</text>
<text text-anchor="start" x="161.722" y="-400.4" font-family="Times,serif" font-size="14.00">last_sign_in_at :datetime</text>
<text text-anchor="start" x="161.722" y="-383.6" font-family="Times,serif" font-size="14.00">current_sign_in_ip :string</text>
<text text-anchor="start" x="161.722" y="-366.8" font-family="Times,serif" font-size="14.00">last_sign_in_ip :string</text>
<text text-anchor="start" x="161.722" y="-350" font-family="Times,serif" font-size="14.00">created_at :datetime</text>
<text text-anchor="start" x="161.722" y="-333.2" font-family="Times,serif" font-size="14.00">updated_at :datetime</text>
</g>
<!-- Offer&#45;&gt;User -->
<g id="edge5" class="edge"><title>Offer&#45;&gt;User</title>
<path fill="none" stroke="#83639b" d="M229.74,-604.341C230.658,-599.047 231.604,-593.6 232.565,-588.06"/>
<polygon fill="#83639b" stroke="#83639b" points="229.694,-604.608 223.55,-613.691 228.839,-609.534 227.984,-614.46 227.984,-614.46 227.984,-614.46 228.839,-609.534 232.418,-615.23 229.694,-604.608 229.694,-604.608"/>
<polygon fill="#83639b" stroke="#83639b" points="232.6,-587.855 238.744,-578.772 233.455,-582.929 234.31,-578.002 234.31,-578.002 234.31,-578.002 233.455,-582.929 229.876,-577.233 232.6,-587.855 232.6,-587.855"/>
</g>
<!-- Product&#45;&gt;Image -->
<g id="edge7" class="edge"><title>Product&#45;&gt;Image</title>
<path fill="none" stroke="#83b60d" d="M217.772,-147.729C214.147,-140.782 210.485,-133.762 206.894,-126.879"/>
<ellipse fill="none" stroke="#83b60d" cx="219.741" cy="-151.504" rx="4.00002" ry="4.00002"/>
<polygon fill="#83b60d" stroke="#83b60d" points="206.677,-126.464 206.041,-115.516 204.364,-122.031 202.051,-117.598 202.051,-117.598 202.051,-117.598 204.364,-122.031 198.062,-119.68 206.677,-126.464 206.677,-126.464"/>
</g>
<!-- User&#45;&gt;Product -->
<g id="edge9" class="edge"><title>User&#45;&gt;Product</title>
<path fill="none" stroke="#861410" d="M256,-318.199C256,-311.737 256,-305.358 256,-299.147"/>
<ellipse fill="none" stroke="#861410" cx="256" cy="-322.326" rx="4" ry="4"/>
<polygon fill="#861410" stroke="#861410" points="256,-298.871 260.5,-288.87 256,-293.871 256,-288.871 256,-288.871 256,-288.871 256,-293.871 251.5,-288.871 256,-298.871 256,-298.871"/>
</g>
<!-- ActiveRecord::Base -->
<g id="node7" class="node"><title>ActiveRecord::Base</title>
<ellipse fill="none" stroke="black" cx="313" cy="-811" rx="88.2033" ry="18"/>
<text text-anchor="middle" x="313" y="-805.4" font-family="Times,serif" font-size="14.00">ActiveRecord::Base</text>
</g>
<!-- ActiveRecord::Base&#45;&gt;Category -->
<g id="edge2" class="edge"><title>ActiveRecord::Base&#45;&gt;Category</title>
<path fill="none" stroke="black" d="M337.856,-793.638C357.44,-779.516 384.021,-757.418 400,-732 444.167,-661.743 465.02,-566.547 474.283,-507.491"/>
<polyline fill="none" stroke="black" points="475.091,-502.244 474.33,-507.186 "/>
</g>
<!-- ActiveRecord::Base&#45;&gt;Image -->
<g id="edge3" class="edge"><title>ActiveRecord::Base&#45;&gt;Image</title>
<path fill="none" stroke="black" d="M276.718,-794.451C227.877,-773.375 146.525,-737.703 142,-732 98.6036,-677.308 117.923,-647.473 111,-578 99.8942,-466.552 98.4029,-437.289 111,-326 119.002,-255.308 138.603,-176.031 153.444,-122.56"/>
<polyline fill="none" stroke="black" points="154.864,-117.467 153.521,-122.283 "/>
</g>
<!-- ActiveRecord::Base&#45;&gt;Offer -->
<g id="edge6" class="edge"><title>ActiveRecord::Base&#45;&gt;Offer</title>
<path fill="none" stroke="black" d="M301.16,-793.05C291.041,-778.565 275.835,-756.795 261.181,-735.817"/>
<polyline fill="none" stroke="black" points="258.259,-731.634 261.122,-735.733 "/>
</g>
<!-- ActiveRecord::Base&#45;&gt;Product -->
<g id="edge8" class="edge"><title>ActiveRecord::Base&#45;&gt;Product</title>
<path fill="none" stroke="black" d="M320.892,-792.786C349.304,-728.196 440.873,-495.327 367,-326 358.057,-305.502 342.802,-287.254 326.416,-272.024"/>
<polyline fill="none" stroke="black" points="322.681,-268.62 326.376,-271.988 "/>
</g>
<!-- ActiveRecord::Base&#45;&gt;User -->
<g id="edge10" class="edge"><title>ActiveRecord::Base&#45;&gt;User</title>
<path fill="none" stroke="black" d="M311.97,-792.864C309.757,-758.676 303.848,-679.637 293,-614 291.332,-603.908 289.411,-593.504 287.339,-583.07"/>
<polyline fill="none" stroke="black" points="286.311,-577.946 287.295,-582.848 "/>
</g>
</g>
</svg>
