<?xml version="1.0" encoding="UTF-8" standalone="no"?>
<!DOCTYPE svg PUBLIC "-//W3C//DTD SVG 1.1//EN"
 "http://www.w3.org/Graphics/SVG/1.1/DTD/svg11.dtd">
<!-- Generated by graphviz version 2.34.0 (20140130.1339)
 -->
<!-- Title: models_diagram Pages: 1 -->
<svg width="479pt" height="382pt"
 viewBox="0.00 0.00 479.00 382.00" xmlns="http://www.w3.org/2000/svg" xmlns:xlink="http://www.w3.org/1999/xlink">
<g id="graph0" class="graph" transform="scale(1 1) rotate(0) translate(4 378)">
<title>models_diagram</title>
<polygon fill="white" stroke="white" points="-4,4 -4,-378 475,-378 475,4 -4,4"/>
<!-- _diagram_info -->
<g id="node1" class="node"><title>_diagram_info</title>
<text text-anchor="start" x="7.78833" y="-357" font-family="Times,serif" font-size="13.00">Models diagram</text>
<text text-anchor="start" x="7.78833" y="-341.4" font-family="Times,serif" font-size="13.00">Date: Mar 20 2014 &#45; 13:41</text>
<text text-anchor="start" x="7.78833" y="-325.8" font-family="Times,serif" font-size="13.00">Migration version: 20140316111014</text>
<text text-anchor="start" x="7.78833" y="-310.2" font-family="Times,serif" font-size="13.00">Generated by RailRoady 1.1.1</text>
<text text-anchor="start" x="7.78833" y="-294.6" font-family="Times,serif" font-size="13.00">http://railroady.prestonlee.com</text>
</g>
<!-- Category -->
<g id="node2" class="node"><title>Category</title>
<ellipse fill="none" stroke="black" cx="425" cy="-162" rx="46.1519" ry="18"/>
<text text-anchor="middle" x="425" y="-156.4" font-family="Times,serif" font-size="14.00">Category</text>
</g>
<!-- Product -->
<g id="node5" class="node"><title>Product</title>
<ellipse fill="none" stroke="black" cx="294" cy="-90" rx="41.1166" ry="18"/>
<text text-anchor="middle" x="294" y="-84.4" font-family="Times,serif" font-size="14.00">Product</text>
</g>
<!-- Category&#45;&gt;Product -->
<g id="edge1" class="edge"><title>Category&#45;&gt;Product</title>
<path fill="none" stroke="#f55f24" d="M389.977,-142.285C370.826,-132.052 347.203,-119.429 328.185,-109.267"/>
<polygon fill="#f55f24" stroke="#f55f24" points="389.985,-142.29 396.684,-150.972 394.395,-144.646 398.805,-147.003 398.805,-147.003 398.805,-147.003 394.395,-144.646 400.926,-143.034 389.985,-142.29 389.985,-142.29"/>
<polygon fill="#f55f24" stroke="#f55f24" points="328.079,-109.21 321.38,-100.528 323.669,-106.854 319.259,-104.497 319.259,-104.497 319.259,-104.497 323.669,-106.854 317.139,-108.466 328.079,-109.21 328.079,-109.21"/>
</g>
<!-- Image -->
<g id="node3" class="node"><title>Image</title>
<ellipse fill="none" stroke="black" cx="243" cy="-18" rx="35.2475" ry="18"/>
<text text-anchor="middle" x="243" y="-12.4" font-family="Times,serif" font-size="14.00">Image</text>
</g>
<!-- Offer -->
<g id="node4" class="node"><title>Offer</title>
<ellipse fill="none" stroke="black" cx="253" cy="-234" rx="31.1659" ry="18"/>
<text text-anchor="middle" x="253" y="-228.4" font-family="Times,serif" font-size="14.00">Offer</text>
</g>
<!-- Offer&#45;&gt;Product -->
<g id="edge4" class="edge"><title>Offer&#45;&gt;Product</title>
<path fill="none" stroke="#edcdfb" d="M249.887,-205.637C248.808,-187.647 249.248,-163.85 256,-144 259.555,-133.549 265.914,-123.371 272.426,-114.774"/>
<polygon fill="#edcdfb" stroke="#edcdfb" points="249.898,-205.774 246.201,-216.098 250.293,-210.758 250.687,-215.743 250.687,-215.743 250.687,-215.743 250.293,-210.758 255.173,-215.388 249.898,-205.774 249.898,-205.774"/>
<polygon fill="#edcdfb" stroke="#edcdfb" points="272.615,-114.538 282.394,-109.576 275.752,-110.645 278.89,-106.752 278.89,-106.752 278.89,-106.752 275.752,-110.645 275.386,-103.928 272.615,-114.538 272.615,-114.538"/>
</g>
<!-- User -->
<g id="node6" class="node"><title>User</title>
<ellipse fill="none" stroke="black" cx="294" cy="-162" rx="28.9087" ry="18"/>
<text text-anchor="middle" x="294" y="-156.4" font-family="Times,serif" font-size="14.00">User</text>
</g>
<!-- Offer&#45;&gt;User -->
<g id="edge5" class="edge"><title>Offer&#45;&gt;User</title>
<path fill="none" stroke="#897c08" d="M267.642,-208.001C271.421,-201.55 275.489,-194.605 279.271,-188.146"/>
<polygon fill="#897c08" stroke="#897c08" points="267.563,-208.136 258.626,-214.49 265.036,-212.45 262.509,-216.765 262.509,-216.765 262.509,-216.765 265.036,-212.45 266.392,-219.039 267.563,-208.136 267.563,-208.136"/>
<polygon fill="#897c08" stroke="#897c08" points="279.488,-187.776 288.425,-181.422 282.015,-183.462 284.542,-179.147 284.542,-179.147 284.542,-179.147 282.015,-183.462 280.659,-176.873 279.488,-187.776 279.488,-187.776"/>
</g>
<!-- Product&#45;&gt;Image -->
<g id="edge7" class="edge"><title>Product&#45;&gt;Image</title>
<path fill="none" stroke="#a88d37" d="M277.034,-65.7127C271.753,-58.4653 265.921,-50.4606 260.599,-43.1553"/>
<ellipse fill="none" stroke="#a88d37" cx="279.558" cy="-69.178" rx="4.00002" ry="4.00002"/>
<polygon fill="#a88d37" stroke="#a88d37" points="260.537,-43.0705 258.286,-32.3382 257.593,-39.0293 254.648,-34.9881 254.648,-34.9881 254.648,-34.9881 257.593,-39.0293 251.011,-37.638 260.537,-43.0705 260.537,-43.0705"/>
</g>
<!-- User&#45;&gt;Product -->
<g id="edge9" class="edge"><title>User&#45;&gt;Product</title>
<path fill="none" stroke="#f7b1d3" d="M294,-135.64C294,-130.063 294,-124.132 294,-118.476"/>
<ellipse fill="none" stroke="#f7b1d3" cx="294" cy="-139.697" rx="4" ry="4"/>
<polygon fill="#f7b1d3" stroke="#f7b1d3" points="294,-118.104 298.5,-108.104 294,-113.104 294,-108.104 294,-108.104 294,-108.104 294,-113.104 289.5,-108.104 294,-118.104 294,-118.104"/>
</g>
<!-- ActiveRecord::Base -->
<g id="node7" class="node"><title>ActiveRecord::Base</title>
<ellipse fill="none" stroke="black" cx="313" cy="-331" rx="88.2033" ry="18"/>
<text text-anchor="middle" x="313" y="-325.4" font-family="Times,serif" font-size="14.00">ActiveRecord::Base</text>
</g>
<!-- ActiveRecord::Base&#45;&gt;Category -->
<g id="edge2" class="edge"><title>ActiveRecord::Base&#45;&gt;Category</title>
<path fill="none" stroke="black" d="M324.356,-313.068C345.006,-282.277 388.641,-217.214 411.059,-183.787"/>
<polyline fill="none" stroke="black" points="413.946,-179.482 411.161,-183.634 "/>
</g>
<!-- ActiveRecord::Base&#45;&gt;Image -->
<g id="edge3" class="edge"><title>ActiveRecord::Base&#45;&gt;Image</title>
<path fill="none" stroke="black" d="M279.004,-314.172C255.429,-301.148 225.871,-280.237 212,-252 176.918,-180.582 213.261,-82.7867 232.578,-40.227"/>
<polyline fill="none" stroke="black" points="234.73,-35.5571 232.637,-40.0979 "/>
</g>
<!-- ActiveRecord::Base&#45;&gt;Offer -->
<g id="edge6" class="edge"><title>ActiveRecord::Base&#45;&gt;Offer</title>
<path fill="none" stroke="black" d="M302.273,-313.016C292.167,-297.015 277.001,-273.002 266.167,-255.847"/>
<polyline fill="none" stroke="black" points="263.233,-251.203 265.903,-255.43 "/>
</g>
<!-- ActiveRecord::Base&#45;&gt;Product -->
<g id="edge8" class="edge"><title>ActiveRecord::Base&#45;&gt;Product</title>
<path fill="none" stroke="black" d="M319.282,-312.846C330.53,-279.463 351.221,-203.796 332,-144 328.154,-132.035 320.499,-120.482 313.061,-111.233"/>
<polyline fill="none" stroke="black" points="309.674,-107.152 312.867,-110.999 "/>
</g>
<!-- ActiveRecord::Base&#45;&gt;User -->
<g id="edge10" class="edge"><title>ActiveRecord::Base&#45;&gt;User</title>
<path fill="none" stroke="black" d="M311.038,-312.757C307.582,-282.381 300.412,-219.355 296.567,-185.562"/>
<polyline fill="none" stroke="black" points="295.98,-180.399 296.545,-185.367 "/>
</g>
</g>
</svg>
